<svg width="719" height="1025" viewBox="0 0 719 1025" fill="none" xmlns="http://www.w3.org/2000/svg">
<g clip-path="url(#clip0_22_269)">
<path d="M719 -5H0V1025H719V-5Z" fill="black"/>
<g filter="url(#filter0_f_22_269)">
<path d="M394.119 868.211C612.372 868.211 789.302 678.116 789.302 443.622C789.302 209.128 612.372 19.0334 394.119 19.0334C175.865 19.0334 -1.06519 209.128 -1.06519 443.622C-1.06519 678.116 175.865 868.211 394.119 868.211Z" fill="#261170"/>
<path d="M15.9778 759.489C234.232 759.489 411.161 569.394 411.161 334.9C411.161 100.406 234.232 -89.6888 15.9778 -89.6888C-202.276 -89.6888 -379.206 100.406 -379.206 334.9C-379.206 569.394 -202.276 759.489 15.9778 759.489Z" fill="#13BD19"/>
<path d="M270.557 614.144C488.811 614.144 665.741 424.05 665.741 189.556C665.741 -44.9384 488.811 -235.033 270.557 -235.033C52.3031 -235.033 -124.627 -44.9384 -124.627 189.556C-124.627 424.05 52.3031 614.144 270.557 614.144Z" fill="#261170"/>
<path d="M607.156 728.589C825.409 728.589 1002.34 538.494 1002.34 304C1002.34 69.5061 825.409 -120.589 607.156 -120.589C388.902 -120.589 211.972 69.5061 211.972 304C211.972 538.494 388.902 728.589 607.156 728.589Z" fill="#261170"/>
<path d="M657.219 1054.76C875.473 1054.76 1052.4 864.661 1052.4 630.167C1052.4 395.673 875.473 205.578 657.219 205.578C438.965 205.578 262.036 395.673 262.036 630.167C262.036 864.661 438.965 1054.76 657.219 1054.76Z" fill="#13BD19"/>
<path d="M275.883 1336.29C494.137 1336.29 671.067 1146.19 671.067 911.7C671.067 677.206 494.137 487.111 275.883 487.111C57.629 487.111 -119.301 677.206 -119.301 911.7C-119.301 1146.19 57.629 1336.29 275.883 1336.29Z" fill="#261170"/>
</g>
</g>
<defs>
<filter id="filter0_f_22_269" x="-713.206" y="-569.033" width="2099.61" height="2239.32" filterUnits="userSpaceOnUse" color-interpolation-filters="sRGB">
<feFlood flood-opacity="0" result="BackgroundImageFix"/>
<feBlend mode="normal" in="SourceGraphic" in2="BackgroundImageFix" result="shape"/>
<feGaussianBlur stdDeviation="167" result="effect1_foregroundBlur_22_269"/>
</filter>
<clipPath id="clip0_22_269">
<rect width="719" height="1030" fill="white" transform="translate(0 -5)"/>
</clipPath>
</defs>
</svg>
