<svg width="100" height="100" viewBox="0 0 100 100" fill="none" xmlns="http://www.w3.org/2000/svg">
<g clip-path="url(#clip0_15_122)">
<path d="M98.1142 45.5443L54.4526 1.88611C51.94 -0.628705 47.8617 -0.628705 45.3457 1.88611L36.2795 10.9524L47.7805 22.4534C50.4533 21.5504 53.5178 22.1561 55.6486 24.2869C57.7893 26.4308 58.3905 29.5217 57.4656 32.2033L68.5497 43.2874C71.2313 42.3635 74.3254 42.9615 76.4672 45.1066C79.4604 48.0987 79.4604 52.9484 76.4672 55.9427C73.4729 58.937 68.6232 58.937 65.6278 55.9427C63.3763 53.689 62.82 50.382 63.96 47.6082L53.6231 37.2713L53.622 64.4735C54.3517 64.8356 55.0407 65.3173 55.6486 65.9229C58.6418 68.915 58.6418 73.7647 55.6486 76.7612C52.6543 79.7544 47.8024 79.7544 44.8125 76.7612C41.8193 73.7647 41.8193 68.915 44.8125 65.9229C45.552 65.1845 46.4079 64.626 47.3207 64.2508V36.7951C46.4079 36.4221 45.5531 35.8669 44.8125 35.123C42.5446 32.8583 41.9992 29.5305 43.1612 26.7457L31.8248 15.4071L1.88721 45.3425C-0.628704 47.8595 -0.628704 51.9378 1.88721 54.4526L45.5487 98.112C48.0625 100.627 52.1397 100.627 54.6567 98.112L98.1142 54.6556C100.629 52.1397 100.629 48.0592 98.1142 45.5443Z" fill="#961CBD"/>
</g>
<defs>
<clipPath id="clip0_15_122">
<rect width="100" height="100" fill="white"/>
</clipPath>
</defs>
</svg>
