<svg width="100" height="100" viewBox="0 0 100 100" fill="none" xmlns="http://www.w3.org/2000/svg">
<circle cx="50" cy="50" r="50" fill="#961CBD"/>
<g clip-path="url(#clip0_15_154)">
<path d="M27.1577 37.6624H43.4691V38.9526H28.653V48.6632H42.5855V49.9534H28.653V60.6147H43.639V61.9049H27.1577V37.6624ZM44.9303 37.6624H46.6634L54.3433 48.3237L62.1931 37.6624L72.8701 24.1201L55.3288 49.4441L64.3679 61.9049H62.5669L54.3433 50.5646L46.0857 61.9049H44.3186L53.4258 49.4441L44.9303 37.6624ZM65.0136 38.9526V37.6624H83.6017V38.9526H75.0383V61.9049H73.5431V38.9526H65.0136Z" fill="#261170"/>
<path d="M6.75162 37.6624H8.62062L34.3931 76.0432L23.7426 61.9049L8.31479 39.4958L8.24682 61.9049H6.75162V37.6624Z" fill="#261170"/>
<path d="M83.4511 60.2254C83.7602 60.2254 83.9857 59.9898 83.9857 59.6854C83.9857 59.381 83.7602 59.1455 83.4511 59.1455C83.1456 59.1455 82.9165 59.381 82.9165 59.6854C82.9165 59.9898 83.1456 60.2254 83.4511 60.2254ZM84.9203 58.8048C84.9203 59.7035 85.5712 60.2906 86.5204 60.2906C87.5314 60.2906 88.1424 59.6854 88.1424 58.6345V54.9345H87.3278V58.6309C87.3278 59.2143 87.0332 59.526 86.5131 59.526C86.0477 59.526 85.7313 59.2361 85.7204 58.8048H84.9203ZM89.2079 58.7577C89.2661 59.6927 90.048 60.2906 91.2117 60.2906C92.4555 60.2906 93.2337 59.6637 93.2337 58.6635C93.2337 57.8771 92.7901 57.4422 91.7136 57.1922L91.1354 57.0508C90.4517 56.8914 90.1753 56.6776 90.1753 56.3043C90.1753 55.8332 90.6044 55.5252 91.2481 55.5252C91.8591 55.5252 92.2809 55.8259 92.3573 56.3079H93.1501C93.1028 55.4273 92.3246 54.8076 91.259 54.8076C90.1135 54.8076 89.3498 55.4273 89.3498 56.3587C89.3498 57.1269 89.7825 57.5835 90.7317 57.8046L91.4081 57.9677C92.1027 58.1308 92.4082 58.3699 92.4082 58.7686C92.4082 59.2324 91.9282 59.5695 91.2736 59.5695C90.5717 59.5695 90.0844 59.2542 90.0153 58.7577H89.2079Z" fill="#261170"/>
</g>
<defs>
<clipPath id="clip0_15_154">
<rect width="86.6667" height="51.9163" fill="white" transform="translate(6.66666 24)"/>
</clipPath>
</defs>
</svg>
