<svg width="100" height="90" viewBox="0 0 100 90" fill="none" xmlns="http://www.w3.org/2000/svg">
<path d="M82.2201 28.8374C81.1827 28.4803 80.1078 28.1425 79.001 27.8229C79.1829 27.0805 79.3498 26.3477 79.4983 25.6273C81.9351 13.7988 80.3418 4.26963 74.9013 1.13222C69.6845 -1.87613 61.1529 1.26056 52.5363 8.75929C51.7077 9.48036 50.8768 10.2438 50.0463 11.0439C49.4929 10.5145 48.9404 10.003 48.3893 9.51365C39.3589 1.49552 30.3073 -1.88343 24.8721 1.26305C19.6603 4.28013 18.1169 13.2384 20.3104 24.4484C20.5222 25.5312 20.7698 26.6369 21.0498 27.7612C19.7687 28.1248 18.532 28.5125 17.3486 28.9249C6.76146 32.6161 0 38.401 0 44.4016C0 50.5989 7.25843 56.815 18.2858 60.5841C19.156 60.8816 20.059 61.1628 20.9896 61.4298C20.6875 62.6457 20.4248 63.8372 20.2043 64.9994C18.1128 76.0148 19.7461 84.7615 24.944 87.7595C30.313 90.8557 39.3236 87.6732 48.0977 80.0036C48.7912 79.3973 49.4872 78.7544 50.1844 78.0805C51.0881 78.9507 51.9904 79.7743 52.8879 80.5469C61.3866 87.8603 69.7805 90.8135 74.9736 87.8071C80.3372 84.7021 82.0803 75.306 79.8173 63.8743C79.6444 63.0012 79.4433 62.1092 79.2174 61.2014C79.8502 61.0144 80.4714 60.8212 81.0771 60.6204C92.5411 56.8221 100 50.6817 100 44.4016C100 38.3793 93.0205 32.5554 82.2201 28.8374ZM79.7336 56.5655C79.1868 56.7465 78.6257 56.9215 78.054 57.0911C76.7884 53.0845 75.0804 48.8241 72.9901 44.4224C74.9848 40.1255 76.6268 35.9196 77.857 31.939C78.8799 32.235 79.8728 32.5472 80.8295 32.8767C90.0833 36.0623 95.728 40.7723 95.728 44.4016C95.728 48.2673 89.6319 53.2857 79.7336 56.5655ZM75.6265 64.7039C76.6272 69.7589 76.7701 74.3292 76.1072 77.902C75.5117 81.1124 74.3139 83.2528 72.833 84.11C69.6815 85.9342 62.9421 83.563 55.6739 77.3085C54.8407 76.5916 54.0014 75.826 53.1595 75.0157C55.9772 71.934 58.7933 68.3515 61.5418 64.3727C66.3761 63.9437 70.9433 63.2424 75.0852 62.2849C75.2892 63.1078 75.4704 63.9148 75.6265 64.7039ZM34.0923 83.7948C31.0132 84.8822 28.561 84.9133 27.0786 84.0586C23.9243 82.2393 22.6129 75.2165 24.4017 65.7961C24.6065 64.7173 24.8504 63.609 25.1315 62.4763C29.2279 63.3821 33.7617 64.0339 38.6076 64.4268C41.3745 68.3201 44.272 71.8988 47.1919 75.0323C46.5539 75.6482 45.9185 76.2345 45.2866 76.787C41.4068 80.1784 37.5187 82.5846 34.0923 83.7948ZM19.6674 56.5418C14.7913 54.8752 10.7645 52.7091 8.00424 50.3455C5.52401 48.2214 4.27179 46.1127 4.27179 44.4016C4.27179 40.7602 9.70057 36.1157 18.7548 32.9589C19.8534 32.5759 21.0035 32.2149 22.197 31.8758C23.4483 35.9463 25.0898 40.202 27.0707 44.5055C25.0642 48.8729 23.3993 53.1965 22.1357 57.3147C21.2849 57.0701 20.4606 56.8127 19.6674 56.5418ZM24.5028 23.6281C22.6235 14.0236 23.8716 6.77834 27.0124 4.96026C30.3578 3.02346 37.7557 5.78493 45.5527 12.7082C46.0511 13.1507 46.5515 13.6138 47.0532 14.093C44.1478 17.2128 41.2768 20.7646 38.5344 24.635C33.8313 25.0709 29.3294 25.7712 25.1902 26.7089C24.93 25.662 24.6994 24.6336 24.5028 23.6281ZM67.6382 34.2793C66.6487 32.5702 65.6329 30.9014 64.5973 29.2783C67.7879 29.6816 70.8449 30.217 73.7157 30.8722C72.8538 33.6344 71.7796 36.5225 70.5151 39.4831C69.608 37.761 68.6486 36.0246 67.6382 34.2793ZM50.0477 17.1461C52.0181 19.2808 53.9914 21.6642 55.9323 24.2502C53.9765 24.1578 51.9964 24.1097 50 24.1097C48.0224 24.1097 46.057 24.1567 44.1132 24.2475C46.0561 21.6856 48.0465 19.3054 50.0477 17.1461ZM32.3445 34.3089C31.3561 36.0228 30.4145 37.7498 29.5216 39.4799C28.2776 36.5296 27.2133 33.6284 26.344 30.827C29.1971 30.1885 32.2396 29.6665 35.41 29.2708C34.3598 30.9089 33.3356 32.5899 32.3445 34.3085V34.3089ZM35.5013 59.8371C32.2258 59.4716 29.1375 58.9764 26.2851 58.3556C27.1683 55.5042 28.256 52.5411 29.5264 49.5272C30.4216 51.2561 31.3669 52.9838 32.3614 54.7015H32.3616C33.3746 56.4514 34.4241 58.1655 35.5013 59.8371ZM50.1659 71.9582C48.1412 69.7737 46.1216 67.3572 44.1492 64.7578C46.0639 64.833 48.016 64.8714 50 64.8714C52.0383 64.8714 54.0532 64.8255 56.0365 64.7372C54.0892 67.3833 52.123 69.8036 50.1659 71.9582ZM70.5558 49.3736C71.8924 52.42 73.0191 55.3677 73.9138 58.1705C71.0143 58.8319 67.8839 59.3647 64.5856 59.7605C65.6237 58.1155 66.6484 56.4181 67.6553 54.6721C68.674 52.9056 69.6413 51.1365 70.5558 49.3736ZM63.9549 52.5379C62.3917 55.2483 60.7869 57.8357 59.1577 60.278C56.1903 60.4901 53.1246 60.5994 50 60.5994C46.888 60.5994 43.861 60.5028 40.9461 60.3136C39.2512 57.8392 37.6115 55.2442 36.0583 52.5612H36.0586C34.5095 49.8855 33.0837 47.1872 31.7918 44.5041C33.0834 41.8147 34.5054 39.1134 36.0456 36.4425L36.0453 36.4431C37.5896 33.7651 39.2149 31.1827 40.8941 28.7238C43.8681 28.499 46.9178 28.3817 49.9998 28.3817H50C53.0959 28.3817 56.1495 28.4999 59.1226 28.7266C60.7762 31.1675 62.3905 33.7416 63.9409 36.4199C65.5088 39.1283 66.9492 41.8117 68.2518 44.4434C66.9531 47.1203 65.516 49.8307 63.9549 52.5379ZM72.7675 4.83317C76.1161 6.76428 77.4184 14.5524 75.3144 24.7651C75.1802 25.4168 75.0291 26.0805 74.865 26.7532C70.7162 25.7959 66.211 25.0835 61.4943 24.641C58.7465 20.7281 55.8991 17.1708 53.0409 14.0911C53.8093 13.3518 54.5767 12.647 55.3409 11.9818C62.7235 5.55691 69.6236 3.02026 72.7675 4.83317ZM50 35.4719C54.9316 35.4719 58.9297 39.4698 58.9297 44.4016C58.9297 49.3332 54.9316 53.3312 50 53.3312C45.0684 53.3312 41.0703 49.3332 41.0703 44.4016C41.0703 39.4698 45.0684 35.4719 50 35.4719Z" fill="#961CBD"/>
</svg>
