<svg width="100" height="115" viewBox="0 0 100 115" fill="none" xmlns="http://www.w3.org/2000/svg">
<g clip-path="url(#clip0_15_119)">
<path d="M30.7305 69.933C28.9141 71.0689 26.1773 72.9092 24.0602 74.9107C20.5844 78.1932 19.857 82.7463 21.6906 83.81C23.3867 84.7932 27.3465 83.6232 30.1805 80.5322C33.1547 77.2869 34.3813 73.1728 33.1145 68.5025C32.9656 68.5912 32.8195 68.6803 32.6762 68.7631L32.6793 68.7693L32.4871 68.8783C31.7477 69.3197 31.1434 69.6838 30.7305 69.933ZM81.7738 68.4596C80.7449 70.6955 80.6934 71.415 81.0059 71.6389C82.4988 71.1025 84.9688 69.81 84.9883 66.3463C84.9914 65.8275 84.877 65.2709 84.6934 64.6893C83.0973 66.1025 82.1773 67.5822 81.7738 68.4596ZM97.7934 61.699C93.8051 61.2342 90.693 61.7936 88.2777 62.7998C88.725 63.9639 89.0687 65.1764 89.1172 66.3978C89.2293 69.0787 87.384 71.0627 85.4609 72.4791C84.3379 73.3049 83.143 73.8553 82.1398 74.1877C81.3379 74.526 80.2719 74.8756 79.5152 74.7213C77.8473 74.3822 76.9594 72.9006 78.0941 69.6322C78.707 67.8635 80.475 65.1709 83.3289 62.8518C82.6785 61.5127 81.9535 60.1482 81.584 58.8947C80.8559 56.4236 80.6359 54.9299 80.6359 54.9299C80.6359 54.9299 78.2836 59.8068 75.2488 64.242C75.0738 64.4998 74.8992 64.7525 74.7242 65.0045C75.3203 66.3896 75.7898 67.8545 75.8535 69.3314C75.9652 72.0119 74.8047 74.0389 72.8789 75.4521C71.8363 76.2209 70.7242 76.7518 69.7699 77.0896C69.1598 77.356 67.9188 77.7943 66.1539 77.9123C65.1887 77.9783 64.2602 77.9185 63.7418 77.5256C63.0281 76.9865 62.9422 76.3213 63.3117 75.4123C63.6242 74.6408 65.9621 71.9721 67.9223 69.6353C68.4637 68.99 68.9793 68.3307 69.4406 67.7201L69.4293 67.6939C69.4293 67.6943 69.7844 67.2357 70.3605 66.4357C69.6441 64.8932 68.7359 63.2873 68.309 61.8311C67.5809 59.36 67.3605 57.8658 67.3605 57.8658C67.3605 57.8658 64.9762 63.9787 62.4922 68.8584C60.5699 72.6377 59.2859 74.9279 58.7074 75.9314L58.7016 75.9717C58.7016 75.9717 58.6152 76.1182 58.4664 76.3475L58.3551 76.5334L58.352 76.5162C57.707 77.4685 56.2602 79.3346 54.8219 79.3346C50.8734 79.3346 52.323 71.3154 52.323 71.3154C52.323 71.3154 51.1688 74.2857 49.8676 76.8346C48.8078 78.9131 47.8422 80.674 45.7305 80.674C45.123 80.674 44.1602 80.6564 43.3605 79.8963C41.5469 78.1732 40.1602 73.7978 40.432 70.4092C40.6641 67.5279 41.1082 65.5322 41.7156 63.867C40.6324 64.4572 39.3805 65.1572 38.1055 65.9057L36.1453 67.0607L36.2086 67.1756C37.8301 70.3123 38.2629 77.1846 34.727 82.46C31.1914 87.7381 24.6098 90.9494 18.1973 89.1662C16.1281 88.5896 13.0023 84.3092 15.6984 78.3428C18.0766 73.0814 27.5809 68.1072 30.0855 66.8658L30.773 66.4873C25.7793 62.1178 13.309 56.2232 11.5613 47.1689C11.0684 44.6201 12.2633 38.5248 19.7473 31.5178C26.0422 25.626 34.7988 21.1131 42.8879 18.2373C56.4777 13.4064 70.8363 16.2561 73.0453 24.9205C75.2172 33.4416 67.825 43.6342 58.3578 47.2982C49.9051 50.5693 42.9164 50.0506 40.0453 49.1076C36.7816 48.0353 34.8676 45.8818 34.4008 44.6662C34.2172 44.1904 33.9016 43.3908 34.4008 43.1154C34.707 42.9463 34.8301 42.9865 35.6496 43.8924C36.4293 44.7525 39.5637 47.0607 45.518 46.3924C61.143 44.6408 70.5551 32.4928 67.5809 25.9557C65.498 21.3799 53.4551 19.3154 38.409 26.8186C20.0422 35.976 19.0453 43.5252 18.8879 46.3924C18.4578 54.2795 28.6152 58.4283 34.1113 64.2939L34.323 64.5264C35.3516 63.9588 36.4379 63.3596 37.5035 62.7748C40.2746 61.2521 42.8879 59.824 44.1055 59.1588C46.0398 56.3471 49.9648 53.2443 52.7988 53.2443C57.3289 53.2443 55.773 59.7557 55.773 59.7557C55.773 59.7557 55.8648 59.4576 55.9879 59.4549C56.1168 59.4514 56.6156 58.5971 58.0141 59.1072C59.4523 59.635 59.1254 60.6443 59.1344 60.7475C59.1516 60.9478 57.4352 66.7365 56.7219 70.4494C56.3805 72.2213 56.5781 73.5119 56.6789 73.5119C56.8191 73.5119 57.1059 73.0615 57.3723 72.5771L57.3664 72.5627C57.3664 72.5627 57.5668 72.1959 57.9023 71.5365L57.9684 71.3986L57.9711 71.4049C58.3668 70.6307 58.9223 69.4924 59.5641 68.0818C60.8219 65.3096 65.6211 54.6064 66.0281 53.4225C66.4348 52.2385 66.6469 51.0143 66.8477 50.4893C67.0453 49.9646 68.7418 49.5689 70.7242 49.5834C72.707 49.5978 72.9082 50.4435 72.9219 50.6185C72.9363 50.7932 71.9793 53.1416 71.7586 54.8014C71.541 56.4615 71.7504 57.2896 71.9309 58.6834C72.0484 59.5947 72.6184 60.7506 73.2922 62.0607C75.3438 58.7061 78.9535 52.2896 79.3004 50.492C79.5379 49.2623 79.9191 48.0838 80.1199 47.5588C80.3203 47.0342 82.0141 46.6389 83.9965 46.6529C85.9793 46.6674 86.1797 47.5131 86.1941 47.6881C86.2086 47.8631 85.2484 50.2111 85.0309 51.8713C84.8129 53.5283 85.0227 54.36 85.2027 55.7533C85.3578 56.9459 86.2801 58.5486 87.1945 60.3717C89.6898 59.1416 92.627 58.3162 96.0656 58.299C97.4895 58.2908 99.143 58.4338 99.9969 58.7002V31.2709C99.9969 29.3357 99.0051 27.5525 97.3293 26.5865L52.5844 0.724805C50.9113 -0.241602 48.8625 -0.241602 47.1891 0.724805L2.56758 26.574C0.894141 27.5404 0 29.3268 0 31.2588V83.0045C0 84.9365 0.899609 86.7228 2.57031 87.6889L47.2637 113.558C48.9367 114.528 50.9656 114.528 52.6387 113.558L97.3523 87.6889C99.0254 86.7197 100 84.9361 100 83.0045V62.092C99.4324 61.9248 98.6016 61.7932 97.7934 61.699ZM49.6559 58.9893C48.6961 60.0643 47.0602 62.8365 46.2949 65.1568C44.7734 69.7639 45.4324 74.4459 46.5098 74.7271C47.7676 75.0564 49.8309 68.8982 50.8187 66.4896C51.4379 64.9814 53.8449 58.2873 53.3176 57.3928C52.9059 56.6932 51.2004 57.258 49.6559 58.9893ZM67.0633 74.5174C67.0633 74.5174 66.7598 74.8045 66.891 74.8846C67.0687 74.9908 67.4527 74.8529 67.8711 74.635C69.0547 73.89 71.7105 72.0318 71.7164 69.2822C71.7164 69.2021 71.7133 69.1248 71.7078 69.0416C71.0918 69.8502 70.5242 70.5697 70.0344 71.1803C69.1977 72.2209 67.0633 74.5174 67.0633 74.5174Z" fill="#961CBD"/>
</g>
<defs>
<clipPath id="clip0_15_119">
<rect width="100" height="114.453" fill="white"/>
</clipPath>
</defs>
</svg>
