<svg id="visual" viewBox="0 0 675 900" width="675" height="900" xmlns="http://www.w3.org/2000/svg" xmlns:xlink="http://www.w3.org/1999/xlink" version="1.1"><rect x="0" y="0" width="675" height="900" fill="#261170"></rect><path d="M0 557L28.2 559.8C56.3 562.7 112.7 568.3 169 558.7C225.3 549 281.7 524 337.8 533.3C394 542.7 450 586.3 506.2 591.8C562.3 597.3 618.7 564.7 646.8 548.3L675 532L675 901L646.8 901C618.7 901 562.3 901 506.2 901C450 901 394 901 337.8 901C281.7 901 225.3 901 169 901C112.7 901 56.3 901 28.2 901L0 901Z" fill="#13bd19"></path><path d="M0 565L28.2 563C56.3 561 112.7 557 169 566.8C225.3 576.7 281.7 600.3 337.8 611.5C394 622.7 450 621.3 506.2 608.7C562.3 596 618.7 572 646.8 560L675 548L675 901L646.8 901C618.7 901 562.3 901 506.2 901C450 901 394 901 337.8 901C281.7 901 225.3 901 169 901C112.7 901 56.3 901 28.2 901L0 901Z" fill="#0ea511"></path><path d="M0 658L28.2 651C56.3 644 112.7 630 169 628.3C225.3 626.7 281.7 637.3 337.8 631.8C394 626.3 450 604.7 506.2 607.2C562.3 609.7 618.7 636.3 646.8 649.7L675 663L675 901L646.8 901C618.7 901 562.3 901 506.2 901C450 901 394 901 337.8 901C281.7 901 225.3 901 169 901C112.7 901 56.3 901 28.2 901L0 901Z" fill="#088e0a"></path><path d="M0 640L28.2 644.3C56.3 648.7 112.7 657.3 169 667.7C225.3 678 281.7 690 337.8 688.2C394 686.3 450 670.7 506.2 672C562.3 673.3 618.7 691.7 646.8 700.8L675 710L675 901L646.8 901C618.7 901 562.3 901 506.2 901C450 901 394 901 337.8 901C281.7 901 225.3 901 169 901C112.7 901 56.3 901 28.2 901L0 901Z" fill="#047804"></path><path d="M0 700L28.2 705.3C56.3 710.7 112.7 721.3 169 729.3C225.3 737.3 281.7 742.7 337.8 736.8C394 731 450 714 506.2 701.2C562.3 688.3 618.7 679.7 646.8 675.3L675 671L675 901L646.8 901C618.7 901 562.3 901 506.2 901C450 901 394 901 337.8 901C281.7 901 225.3 901 169 901C112.7 901 56.3 901 28.2 901L0 901Z" fill="#006200"></path><path d="M0 767L28.2 763.5C56.3 760 112.7 753 169 752C225.3 751 281.7 756 337.8 750C394 744 450 727 506.2 717.5C562.3 708 618.7 706 646.8 705L675 704L675 901L646.8 901C618.7 901 562.3 901 506.2 901C450 901 394 901 337.8 901C281.7 901 225.3 901 169 901C112.7 901 56.3 901 28.2 901L0 901Z" fill="#004c00"></path><path d="M0 802L28.2 801.7C56.3 801.3 112.7 800.7 169 799.5C225.3 798.3 281.7 796.7 337.8 789.3C394 782 450 769 506.2 764.3C562.3 759.7 618.7 763.3 646.8 765.2L675 767L675 901L646.8 901C618.7 901 562.3 901 506.2 901C450 901 394 901 337.8 901C281.7 901 225.3 901 169 901C112.7 901 56.3 901 28.2 901L0 901Z" fill="#003700"></path><path d="M0 814L28.2 815.3C56.3 816.7 112.7 819.3 169 819.7C225.3 820 281.7 818 337.8 820.3C394 822.7 450 829.3 506.2 833.7C562.3 838 618.7 840 646.8 841L675 842L675 901L646.8 901C618.7 901 562.3 901 506.2 901C450 901 394 901 337.8 901C281.7 901 225.3 901 169 901C112.7 901 56.3 901 28.2 901L0 901Z" fill="#002500"></path><path d="M0 871L28.2 871.3C56.3 871.7 112.7 872.3 169 867.7C225.3 863 281.7 853 337.8 846.3C394 839.7 450 836.3 506.2 836.7C562.3 837 618.7 841 646.8 843L675 845L675 901L646.8 901C618.7 901 562.3 901 506.2 901C450 901 394 901 337.8 901C281.7 901 225.3 901 169 901C112.7 901 56.3 901 28.2 901L0 901Z" fill="#000000"></path></svg>